<?xml version="1.0" encoding="utf-8"?>
<!-- Generator: Adobe Illustrator 16.0.0, SVG Export Plug-In . SVG Version: 6.00 Build 0)  -->
<!DOCTYPE svg PUBLIC "-//W3C//DTD SVG 1.1//EN" "http://www.w3.org/Graphics/SVG/1.1/DTD/svg11.dtd">
<svg version="1.1" id="Layer_1" xmlns="http://www.w3.org/2000/svg" xmlns:xlink="http://www.w3.org/1999/xlink" x="0px" y="0px"
	 width="190px" height="40px" viewBox="0 0 190 40" enable-background="new 0 0 190 40" xml:space="preserve">
<g enable-background="new    ">
	<path fill="#3E3E3E" d="M48.885,11.583h-2.621v4.362h-2.66V2.321h5.281c2.813,0,4.497,1.55,4.497,4.631
		S51.698,11.583,48.885,11.583z M48.751,4.694h-2.487V9.19h2.487c1.206,0,1.971-0.555,1.971-2.238S49.957,4.694,48.751,4.694z"/>
	<path fill="#3E3E3E" d="M62.856,15.945l-2.66-5.052h-1.913v5.052h-2.66V5.249c0-1.99,0.803-2.928,3.081-2.928h2.258
		c2.774,0,4.42,1.895,4.42,4.363c0,1.913-1.167,3.291-2.487,3.77l3.042,5.491H62.856z M60.79,4.694h-1.32
		c-0.842,0-1.186,0.517-1.186,1.205v2.774h2.506c1.167,0,1.933-0.938,1.933-1.989C62.723,5.44,61.958,4.694,60.79,4.694z"/>
	<path fill="#3E3E3E" d="M78.13,9.535c0,4.593-1.646,6.525-5.415,6.525c-3.827,0-5.415-1.933-5.415-6.583V8.482
		c0-4.151,1.588-6.275,5.415-6.275c3.75,0,5.415,2.124,5.415,6.295V9.535z M75.47,8.77c0-2.276-0.306-4.19-2.755-4.19
		c-2.487,0-2.755,1.914-2.755,4.19v0.708c0.02,2.086,0.172,4.21,2.755,4.21c2.507,0,2.755-2.086,2.755-4.21V8.77z"/>
	<path fill="#3E3E3E" d="M79.626,7.852c0-3.54,1.933-5.645,5.358-5.645c1.55,0,2.908,0.535,3.865,1.492
		c0.823,0.823,1.052,2.086,1.052,3.157h-2.487c0-1.607-0.938-2.277-2.43-2.277c-2.526,0-2.545,2.258-2.545,4.555
		c0.019,2.296-0.019,4.554,2.813,4.554c0.995,0,1.837-0.363,2.354-1.416v-0.918h-1.646v-2.22h3.923v4.113
		c-0.823,1.933-2.717,2.813-4.784,2.813c-3.923,0-5.473-2.239-5.473-6.525V7.852z"/>
	<path fill="#3E3E3E" d="M99.893,15.945l-2.659-5.052H95.32v5.052h-2.66V5.249c0-1.99,0.803-2.928,3.081-2.928h2.258
		c2.774,0,4.42,1.895,4.42,4.363c0,1.913-1.167,3.291-2.487,3.77l3.043,5.491H99.893z M97.826,4.694h-1.32
		c-0.842,0-1.186,0.517-1.186,1.205v2.774h2.506c1.168,0,1.934-0.938,1.934-1.989C99.76,5.44,98.994,4.694,97.826,4.694z"/>
	<path fill="#3E3E3E" d="M112.736,15.945l-0.766-2.354h-4.572l-0.746,2.354h-2.775L108.24,3.47c0.401-0.919,0.861-1.148,1.512-1.148
		c0.611,0,1.053,0.173,1.396,1.148l4.363,12.476H112.736z M109.752,5.957l-1.684,5.396h3.291L109.752,5.957z"/>
	<path fill="#3E3E3E" d="M125.006,12.979c-0.363,0.708-0.861,1.033-1.34,1.033c-0.498,0-0.957-0.363-1.32-1.091l-2.487-5.108v8.132
		h-2.659V2.321h2.621l3.846,7.864l3.827-7.864h2.621v13.624h-2.659V7.813L125.006,12.979z"/>
</g>
<g enable-background="new    ">
	<path fill="#181818" d="M51.493,31.491h-3.909v6.506h-3.966V17.681h7.875c4.194,0,6.706,2.312,6.706,6.905
		S55.687,31.491,51.493,31.491z M51.293,21.219h-3.709v6.706h3.709c1.798,0,2.939-0.828,2.939-3.339S53.091,21.219,51.293,21.219z"
		/>
	<path fill="#181818" d="M72.321,37.997l-3.966-7.533h-2.854v7.533h-3.966v-15.95c0-2.968,1.199-4.366,4.594-4.366h3.367
		c4.138,0,6.591,2.825,6.591,6.506c0,2.854-1.74,4.908-3.709,5.621l4.537,8.189H72.321z M69.239,21.219H67.27
		c-1.255,0-1.769,0.771-1.769,1.798v4.138h3.738c1.741,0,2.882-1.398,2.882-2.968C72.121,22.332,70.979,21.219,69.239,21.219z"/>
	<path fill="#181818" d="M86.386,37.997c-4.537,0-6.192-1.341-6.192-5.364V17.681h13.382v3.538H84.16v4.766h6.591l-0.285,3.538
		H84.16v2.825c0,1.626,0.628,2.111,2.511,2.111h6.905v3.538H86.386z"/>
	<path fill="#181818" d="M108.584,37.997v-8.218h-7.447v8.218H97.17V17.681h3.967v8.589h7.447v-8.589h3.966v20.316H108.584z"/>
	<path fill="#181818" d="M127.785,37.997l-3.967-7.533h-2.854v7.533h-3.966v-15.95c0-2.968,1.198-4.366,4.595-4.366h3.366
		c4.138,0,6.591,2.825,6.591,6.506c0,2.854-1.74,4.908-3.709,5.621l4.537,8.189H127.785z M124.703,21.219h-1.969
		c-1.256,0-1.77,0.771-1.77,1.798v4.138h3.738c1.74,0,2.883-1.398,2.883-2.968C127.586,22.332,126.443,21.219,124.703,21.219z"/>
	<path fill="#181818" d="M146.93,37.997l-1.142-3.51h-6.819l-1.112,3.51h-4.138l6.506-18.604c0.599-1.369,1.284-1.712,2.254-1.712
		c0.913,0,1.569,0.257,2.083,1.712l6.506,18.604H146.93z M142.479,23.103l-2.511,8.047h4.907L142.479,23.103z"/>
	<path fill="#181818" d="M169.698,35.942c0,1.256-0.885,2.283-1.912,2.283c-0.885,0-2.083-0.229-3.225-2.283l-7.02-10.985v13.04
		h-3.966V17.681h3.823l8.332,13.297V17.681h3.967V35.942z"/>
	<path fill="#181818" d="M179.997,37.997c-4.537,0-6.192-1.341-6.192-5.364V17.681h13.383v3.538h-9.416v4.766h6.591l-0.285,3.538
		h-6.306v2.825c0,1.626,0.627,2.111,2.511,2.111h6.905v3.538H179.997z"/>
</g>
<g>
	<path fill="#CED6E0" d="M37.313,19.863c0-9.858-7.993-17.85-17.852-17.85c-9.858,0-17.851,7.992-17.851,17.85
		c0,9.86,7.992,17.852,17.851,17.852S37.313,29.723,37.313,19.863"/>
</g>
<g>
	<path fill="#ADB3BA" d="M32.33,19.863c0-7.106-5.76-12.867-12.868-12.867c-7.106,0-12.867,5.76-12.867,12.867
		c0,7.108,5.76,12.87,12.867,12.87S32.33,26.971,32.33,19.863"/>
</g>
<g>
	<path fill="#F3F3F3" d="M19.982,2.013c-0.371,0-0.594,0.371-0.594,0.669v6.769c0,0.371-0.298,0.67-0.67,0.67
		c-0.372,0-0.67-0.299-0.67-0.67V2.682c0-0.373-0.223-0.669-0.594-0.669C17.083,1.938,16.71,2.31,16.71,2.682v6.769
		c0,0.371-0.297,0.67-0.668,0.67c-0.373,0-0.67-0.299-0.67-0.67V2.682c0-0.373-0.225-0.669-0.595-0.669
		c-0.372-0.075-0.744,0.296-0.744,0.669v6.769c0,0.371-0.297,0.67-0.669,0.67c-0.372,0-0.669-0.299-0.669-0.67V2.682
		c0-0.373-0.224-0.669-0.596-0.669c-0.372-0.075-0.743,0.296-0.743,0.669v7.512c0,1.265,0.521,2.38,1.339,3.273
		c1.338,1.339,2.083,3.199,1.934,5.057L13.14,34.592c0,0.148,0,0.371,0,0.52c0.149,1.638,1.711,2.826,3.347,2.529
		c1.488-0.299,2.455-1.713,2.307-3.197L17.38,18.452c-0.148-1.935,0.595-3.72,1.934-5.058c0.818-0.819,1.339-2.008,1.339-3.272
		v-7.44C20.652,2.31,20.354,2.013,19.982,2.013"/>
</g>
<g>
	<path fill="#F3F3F3" d="M26.38,2.013c0,0-3.199,1.264-4.538,10.859c-0.521,3.942,0.298,7.81,1.786,11.456
		c0.148,0.371,0.223,0.818,0.223,1.264l-0.893,9.594c0,0.15,0,0.299,0,0.445c0.149,1.266,1.265,2.232,2.604,2.084
		c1.19-0.148,2.008-1.412,1.934-2.604L26.38,2.013z"/>
</g>
</svg>
